<mxfile host="Electron" agent="Mozilla/5.0 (Windows NT 10.0; Win64; x64) AppleWebKit/537.36 (KHTML, like Gecko) draw.io/28.0.6 Chrome/138.0.7204.100 Electron/37.2.3 Safari/537.36" version="28.0.6">
  <diagram name="Page-1" id="2Ds4gfX0rzDtqcwS4eJ8">
    <mxGraphModel dx="1945" dy="915" grid="1" gridSize="10" guides="1" tooltips="1" connect="1" arrows="1" fold="1" page="1" pageScale="1" pageWidth="850" pageHeight="1100" math="0" shadow="0">
      <root>
        <mxCell id="0" />
        <mxCell id="1" parent="0" />
        <mxCell id="aGkPaXwtZ-jop2L1aZOz-2" value="" style="rounded=0;whiteSpace=wrap;html=1;fillColor=#647687;strokeColor=#314354;fontColor=#ffffff;movable=0;resizable=0;rotatable=0;deletable=0;editable=0;locked=1;connectable=0;" parent="1" vertex="1">
          <mxGeometry x="-490" y="65" width="1115" height="1090" as="geometry" />
        </mxCell>
        <mxCell id="aGkPaXwtZ-jop2L1aZOz-13" value="BUYERS" style="swimlane;childLayout=stackLayout;horizontal=1;startSize=50;horizontalStack=0;rounded=1;fontSize=14;fontStyle=0;strokeWidth=2;resizeParent=0;resizeLast=1;shadow=0;dashed=0;align=center;arcSize=4;whiteSpace=wrap;html=1;fillColor=#f0a30a;fontColor=#000000;strokeColor=#BD7000;movable=0;resizable=0;rotatable=0;deletable=0;editable=0;locked=1;connectable=0;" parent="1" vertex="1">
          <mxGeometry x="-370" y="120" width="160" height="240" as="geometry" />
        </mxCell>
        <mxCell id="aGkPaXwtZ-jop2L1aZOz-14" value="buyer_ID (PK) (VARCHAR)&lt;div&gt;first_name (VARCHAR)&lt;/div&gt;&lt;div&gt;last_name&amp;nbsp;&lt;span style=&quot;background-color: transparent; color: light-dark(rgb(0, 0, 0), rgb(255, 255, 255));&quot;&gt;(VARCHAR)&lt;/span&gt;&lt;/div&gt;&lt;div&gt;address&amp;nbsp;&lt;span style=&quot;background-color: transparent; color: light-dark(rgb(0, 0, 0), rgb(255, 255, 255));&quot;&gt;(VARCHAR)&lt;/span&gt;&lt;/div&gt;&lt;div&gt;&lt;span style=&quot;background-color: transparent; color: light-dark(rgb(0, 0, 0), rgb(255, 255, 255));&quot;&gt;city&amp;nbsp;&lt;/span&gt;&lt;span style=&quot;background-color: transparent; color: light-dark(rgb(0, 0, 0), rgb(255, 255, 255));&quot;&gt;(VARCHAR)&lt;/span&gt;&lt;/div&gt;&lt;div&gt;&lt;span style=&quot;background-color: transparent; color: light-dark(rgb(0, 0, 0), rgb(255, 255, 255));&quot;&gt;state&amp;nbsp;&lt;/span&gt;&lt;span style=&quot;background-color: transparent; color: light-dark(rgb(0, 0, 0), rgb(255, 255, 255));&quot;&gt;(VARCHAR)&lt;/span&gt;&lt;/div&gt;&lt;div&gt;&lt;span style=&quot;background-color: transparent; color: light-dark(rgb(0, 0, 0), rgb(255, 255, 255));&quot;&gt;zip&amp;nbsp;&lt;/span&gt;&lt;span style=&quot;background-color: transparent; color: light-dark(rgb(0, 0, 0), rgb(255, 255, 255));&quot;&gt;(VARCHAR)&lt;/span&gt;&lt;/div&gt;&lt;div&gt;phone&amp;nbsp;&lt;span style=&quot;background-color: transparent; color: light-dark(rgb(0, 0, 0), rgb(255, 255, 255));&quot;&gt;(VARCHAR)&lt;/span&gt;&lt;/div&gt;&lt;div&gt;email&amp;nbsp;&lt;span style=&quot;background-color: transparent; color: light-dark(rgb(0, 0, 0), rgb(255, 255, 255));&quot;&gt;(VARCHAR)&lt;/span&gt;&lt;/div&gt;&lt;div&gt;occupation&amp;nbsp;&lt;span style=&quot;background-color: transparent; color: light-dark(rgb(0, 0, 0), rgb(255, 255, 255));&quot;&gt;(VARCHAR)&lt;/span&gt;&lt;/div&gt;&lt;div&gt;salary (num in $)&lt;/div&gt;&lt;div&gt;credit_score (num)&lt;/div&gt;" style="align=left;strokeColor=none;fillColor=none;spacingLeft=4;spacingRight=4;fontSize=12;verticalAlign=top;resizable=0;rotatable=0;part=1;html=1;whiteSpace=wrap;movable=0;deletable=0;editable=0;locked=1;connectable=0;" parent="aGkPaXwtZ-jop2L1aZOz-13" vertex="1">
          <mxGeometry y="50" width="160" height="190" as="geometry" />
        </mxCell>
        <mxCell id="aGkPaXwtZ-jop2L1aZOz-15" value="EMPLOYEES" style="swimlane;childLayout=stackLayout;horizontal=1;startSize=50;horizontalStack=0;rounded=1;fontSize=14;fontStyle=0;strokeWidth=2;resizeParent=0;resizeLast=1;shadow=0;dashed=0;align=center;arcSize=4;whiteSpace=wrap;html=1;fillColor=#f0a30a;fontColor=#000000;strokeColor=#BD7000;movable=0;resizable=0;rotatable=0;deletable=0;editable=0;locked=1;connectable=0;" parent="1" vertex="1">
          <mxGeometry x="345" y="120" width="160" height="240" as="geometry" />
        </mxCell>
        <mxCell id="aGkPaXwtZ-jop2L1aZOz-16" value="emp_ID (PK) (VARCHAR)&lt;div&gt;first_name (VARCHAR)&lt;/div&gt;&lt;div&gt;last_name&amp;nbsp;&lt;span style=&quot;background-color: transparent; color: light-dark(rgb(0, 0, 0), rgb(255, 255, 255));&quot;&gt;(VARCHAR)&lt;/span&gt;&lt;/div&gt;&lt;div&gt;address&amp;nbsp;&lt;span style=&quot;background-color: transparent; color: light-dark(rgb(0, 0, 0), rgb(255, 255, 255));&quot;&gt;(VARCHAR)&lt;/span&gt;&lt;/div&gt;&lt;div&gt;&lt;span style=&quot;background-color: transparent; color: light-dark(rgb(0, 0, 0), rgb(255, 255, 255));&quot;&gt;city&amp;nbsp;&lt;/span&gt;&lt;span style=&quot;background-color: transparent; color: light-dark(rgb(0, 0, 0), rgb(255, 255, 255));&quot;&gt;(VARCHAR)&lt;/span&gt;&lt;/div&gt;&lt;div&gt;&lt;span style=&quot;background-color: transparent; color: light-dark(rgb(0, 0, 0), rgb(255, 255, 255));&quot;&gt;state&amp;nbsp;&lt;/span&gt;&lt;span style=&quot;background-color: transparent; color: light-dark(rgb(0, 0, 0), rgb(255, 255, 255));&quot;&gt;(VARCHAR)&lt;/span&gt;&lt;/div&gt;&lt;div&gt;&lt;span style=&quot;background-color: transparent; color: light-dark(rgb(0, 0, 0), rgb(255, 255, 255));&quot;&gt;zip&amp;nbsp;&lt;/span&gt;&lt;span style=&quot;background-color: transparent; color: light-dark(rgb(0, 0, 0), rgb(255, 255, 255));&quot;&gt;(VARCHAR)&lt;/span&gt;&lt;/div&gt;&lt;div&gt;phone&amp;nbsp;&lt;span style=&quot;background-color: transparent; color: light-dark(rgb(0, 0, 0), rgb(255, 255, 255));&quot;&gt;(VARCHAR)&lt;/span&gt;&lt;/div&gt;&lt;div&gt;email&amp;nbsp;&lt;span style=&quot;background-color: transparent; color: light-dark(rgb(0, 0, 0), rgb(255, 255, 255));&quot;&gt;(VARCHAR)&lt;/span&gt;&lt;/div&gt;&lt;div&gt;occupation&amp;nbsp;&lt;span style=&quot;background-color: transparent; color: light-dark(rgb(0, 0, 0), rgb(255, 255, 255));&quot;&gt;(VARCHAR)&lt;/span&gt;&lt;/div&gt;&lt;div&gt;salary (NUM (10,2))&lt;/div&gt;&lt;div&gt;&lt;br&gt;&lt;/div&gt;" style="align=left;strokeColor=none;fillColor=none;spacingLeft=4;spacingRight=4;fontSize=12;verticalAlign=top;resizable=0;rotatable=0;part=1;html=1;whiteSpace=wrap;movable=0;deletable=0;editable=0;locked=1;connectable=0;" parent="aGkPaXwtZ-jop2L1aZOz-15" vertex="1">
          <mxGeometry y="50" width="160" height="190" as="geometry" />
        </mxCell>
        <mxCell id="aGkPaXwtZ-jop2L1aZOz-17" value="CONTRACTORS" style="swimlane;childLayout=stackLayout;horizontal=1;startSize=50;horizontalStack=0;rounded=1;fontSize=14;fontStyle=0;strokeWidth=2;resizeParent=0;resizeLast=1;shadow=0;dashed=0;align=center;arcSize=4;whiteSpace=wrap;html=1;fillColor=#f0a30a;fontColor=#000000;strokeColor=#BD7000;movable=0;resizable=0;rotatable=0;deletable=0;editable=0;locked=1;connectable=0;" parent="1" vertex="1">
          <mxGeometry x="330" y="440" width="190" height="240" as="geometry" />
        </mxCell>
        <mxCell id="aGkPaXwtZ-jop2L1aZOz-18" value="contractor_ID (PK) (VARCHAR)&lt;div&gt;first_name (VARCHAR)&lt;/div&gt;&lt;div&gt;last_name&amp;nbsp;&lt;span style=&quot;background-color: transparent; color: light-dark(rgb(0, 0, 0), rgb(255, 255, 255));&quot;&gt;(VARCHAR)&lt;/span&gt;&lt;/div&gt;&lt;div&gt;address&amp;nbsp;&lt;span style=&quot;background-color: transparent; color: light-dark(rgb(0, 0, 0), rgb(255, 255, 255));&quot;&gt;(VARCHAR)&lt;/span&gt;&lt;/div&gt;&lt;div&gt;&lt;span style=&quot;background-color: transparent; color: light-dark(rgb(0, 0, 0), rgb(255, 255, 255));&quot;&gt;city&amp;nbsp;&lt;/span&gt;&lt;span style=&quot;background-color: transparent; color: light-dark(rgb(0, 0, 0), rgb(255, 255, 255));&quot;&gt;(VARCHAR)&lt;/span&gt;&lt;/div&gt;&lt;div&gt;&lt;span style=&quot;background-color: transparent; color: light-dark(rgb(0, 0, 0), rgb(255, 255, 255));&quot;&gt;state&amp;nbsp;&lt;/span&gt;&lt;span style=&quot;background-color: transparent; color: light-dark(rgb(0, 0, 0), rgb(255, 255, 255));&quot;&gt;(VARCHAR)&lt;/span&gt;&lt;/div&gt;&lt;div&gt;&lt;span style=&quot;background-color: transparent; color: light-dark(rgb(0, 0, 0), rgb(255, 255, 255));&quot;&gt;zip&amp;nbsp;&lt;/span&gt;&lt;span style=&quot;background-color: transparent; color: light-dark(rgb(0, 0, 0), rgb(255, 255, 255));&quot;&gt;(VARCHAR)&lt;/span&gt;&lt;/div&gt;&lt;div&gt;phone&amp;nbsp;&lt;span style=&quot;background-color: transparent; color: light-dark(rgb(0, 0, 0), rgb(255, 255, 255));&quot;&gt;(VARCHAR)&lt;/span&gt;&lt;/div&gt;&lt;div&gt;email&amp;nbsp;&lt;span style=&quot;background-color: transparent; color: light-dark(rgb(0, 0, 0), rgb(255, 255, 255));&quot;&gt;(VARCHAR)&lt;/span&gt;&lt;/div&gt;&lt;div&gt;employer&amp;nbsp;&lt;span style=&quot;background-color: transparent; color: light-dark(rgb(0, 0, 0), rgb(255, 255, 255));&quot;&gt;(VARCHAR)&lt;/span&gt;&lt;/div&gt;&lt;div&gt;work_specialty (VARCHAR)&lt;/div&gt;&lt;div&gt;pay_rate (NUM (8,2))&lt;/div&gt;" style="align=left;strokeColor=none;fillColor=none;spacingLeft=4;spacingRight=4;fontSize=12;verticalAlign=top;resizable=0;rotatable=0;part=1;html=1;whiteSpace=wrap;movable=0;deletable=0;editable=0;locked=1;connectable=0;" parent="aGkPaXwtZ-jop2L1aZOz-17" vertex="1">
          <mxGeometry y="50" width="190" height="190" as="geometry" />
        </mxCell>
        <mxCell id="aGkPaXwtZ-jop2L1aZOz-19" value="PROPERTIES" style="swimlane;childLayout=stackLayout;horizontal=1;startSize=50;horizontalStack=0;rounded=1;fontSize=14;fontStyle=0;strokeWidth=2;resizeParent=0;resizeLast=1;shadow=0;dashed=0;align=center;arcSize=4;whiteSpace=wrap;html=1;fillColor=#f0a30a;fontColor=#000000;strokeColor=#BD7000;movable=0;resizable=0;rotatable=0;deletable=0;editable=0;locked=1;connectable=0;" parent="1" vertex="1">
          <mxGeometry x="-26.25" y="430" width="187.5" height="240" as="geometry" />
        </mxCell>
        <mxCell id="aGkPaXwtZ-jop2L1aZOz-20" value="parcel_# (PK) (VARCHAR)&lt;div&gt;address&amp;nbsp;&lt;span style=&quot;background-color: transparent; color: light-dark(rgb(0, 0, 0), rgb(255, 255, 255));&quot;&gt;(VARCHAR)&lt;/span&gt;&lt;/div&gt;&lt;div&gt;&lt;span style=&quot;background-color: transparent; color: light-dark(rgb(0, 0, 0), rgb(255, 255, 255));&quot;&gt;city&amp;nbsp;&lt;/span&gt;&lt;span style=&quot;background-color: transparent; color: light-dark(rgb(0, 0, 0), rgb(255, 255, 255));&quot;&gt;(VARCHAR)&lt;/span&gt;&lt;/div&gt;&lt;div&gt;&lt;span style=&quot;background-color: transparent; color: light-dark(rgb(0, 0, 0), rgb(255, 255, 255));&quot;&gt;state&amp;nbsp;&lt;/span&gt;&lt;span style=&quot;background-color: transparent; color: light-dark(rgb(0, 0, 0), rgb(255, 255, 255));&quot;&gt;(VARCHAR)&lt;/span&gt;&lt;/div&gt;&lt;div&gt;&lt;span style=&quot;background-color: transparent; color: light-dark(rgb(0, 0, 0), rgb(255, 255, 255));&quot;&gt;zip&amp;nbsp;&lt;/span&gt;&lt;span style=&quot;background-color: transparent; color: light-dark(rgb(0, 0, 0), rgb(255, 255, 255));&quot;&gt;(VARCHAR)&lt;/span&gt;&lt;/div&gt;&lt;div&gt;sq_ft (num)&lt;/div&gt;&lt;div&gt;rooms (num)&lt;/div&gt;&lt;div&gt;bath (num)&lt;/div&gt;&lt;div&gt;market_value (NUM (10,2))&lt;/div&gt;&lt;div&gt;architecture_style (VARCHAR)&lt;/div&gt;&lt;div&gt;desription (VARCHAR)&lt;/div&gt;" style="align=left;strokeColor=none;fillColor=none;spacingLeft=4;spacingRight=4;fontSize=12;verticalAlign=top;resizable=0;rotatable=0;part=1;html=1;whiteSpace=wrap;movable=0;deletable=0;editable=0;locked=1;connectable=0;" parent="aGkPaXwtZ-jop2L1aZOz-19" vertex="1">
          <mxGeometry y="50" width="187.5" height="190" as="geometry" />
        </mxCell>
        <mxCell id="aGkPaXwtZ-jop2L1aZOz-21" value="AGREEMENTS" style="swimlane;childLayout=stackLayout;horizontal=1;startSize=50;horizontalStack=0;rounded=1;fontSize=14;fontStyle=0;strokeWidth=2;resizeParent=0;resizeLast=1;shadow=0;dashed=0;align=center;arcSize=4;whiteSpace=wrap;html=1;fillColor=#f0a30a;fontColor=#000000;strokeColor=#BD7000;movable=0;resizable=0;rotatable=0;deletable=0;editable=0;locked=1;connectable=0;" parent="1" vertex="1">
          <mxGeometry x="325" y="850" width="200" height="150" as="geometry" />
        </mxCell>
        <mxCell id="aGkPaXwtZ-jop2L1aZOz-22" value="agreement_ID (PK) (VARCHAR)&lt;div&gt;contractor_ID (FK) (VARCHAR)&lt;/div&gt;&lt;div&gt;start_date (DATE)&lt;/div&gt;&lt;div&gt;end_date (DATE)&lt;/div&gt;&lt;div&gt;&lt;span style=&quot;background-color: transparent; color: light-dark(rgb(0, 0, 0), rgb(255, 255, 255));&quot;&gt;contract_description (VARCHAR)&lt;/span&gt;&lt;/div&gt;" style="align=left;strokeColor=none;fillColor=none;spacingLeft=4;spacingRight=4;fontSize=12;verticalAlign=top;resizable=0;rotatable=0;part=1;html=1;whiteSpace=wrap;movable=0;deletable=0;editable=0;locked=1;connectable=0;" parent="aGkPaXwtZ-jop2L1aZOz-21" vertex="1">
          <mxGeometry y="50" width="200" height="100" as="geometry" />
        </mxCell>
        <mxCell id="feJSehRoBDk98gddRo0J-1" style="edgeStyle=orthogonalEdgeStyle;rounded=0;orthogonalLoop=1;jettySize=auto;html=1;exitX=0.5;exitY=1;exitDx=0;exitDy=0;movable=0;resizable=0;rotatable=0;deletable=0;editable=0;locked=1;connectable=0;" edge="1" parent="aGkPaXwtZ-jop2L1aZOz-21" source="aGkPaXwtZ-jop2L1aZOz-22" target="aGkPaXwtZ-jop2L1aZOz-22">
          <mxGeometry relative="1" as="geometry" />
        </mxCell>
        <mxCell id="aGkPaXwtZ-jop2L1aZOz-23" value="SALES AGENTS" style="swimlane;childLayout=stackLayout;horizontal=1;startSize=50;horizontalStack=0;rounded=1;fontSize=14;fontStyle=0;strokeWidth=2;resizeParent=0;resizeLast=1;shadow=0;dashed=0;align=center;arcSize=4;whiteSpace=wrap;html=1;fillColor=#f0a30a;fontColor=#000000;strokeColor=#BD7000;movable=0;resizable=0;rotatable=0;deletable=0;editable=0;locked=1;connectable=0;" parent="1" vertex="1">
          <mxGeometry x="-370" y="830" width="160" height="210" as="geometry" />
        </mxCell>
        <mxCell id="aGkPaXwtZ-jop2L1aZOz-24" value="agent_ID (PK) (VARCHAR)&lt;div&gt;first_name (VARCHAR)&lt;/div&gt;&lt;div&gt;last_name&amp;nbsp;&lt;span style=&quot;background-color: transparent; color: light-dark(rgb(0, 0, 0), rgb(255, 255, 255));&quot;&gt;(VARCHAR)&lt;/span&gt;&lt;/div&gt;&lt;div&gt;address&amp;nbsp;&lt;span style=&quot;background-color: transparent; color: light-dark(rgb(0, 0, 0), rgb(255, 255, 255));&quot;&gt;(VARCHAR)&lt;/span&gt;&lt;/div&gt;&lt;div&gt;&lt;span style=&quot;background-color: transparent; color: light-dark(rgb(0, 0, 0), rgb(255, 255, 255));&quot;&gt;city&amp;nbsp;&lt;/span&gt;&lt;span style=&quot;background-color: transparent; color: light-dark(rgb(0, 0, 0), rgb(255, 255, 255));&quot;&gt;(VARCHAR)&lt;/span&gt;&lt;/div&gt;&lt;div&gt;&lt;span style=&quot;background-color: transparent; color: light-dark(rgb(0, 0, 0), rgb(255, 255, 255));&quot;&gt;state&amp;nbsp;&lt;/span&gt;&lt;span style=&quot;background-color: transparent; color: light-dark(rgb(0, 0, 0), rgb(255, 255, 255));&quot;&gt;(VARCHAR)&lt;/span&gt;&lt;/div&gt;&lt;div&gt;&lt;span style=&quot;background-color: transparent; color: light-dark(rgb(0, 0, 0), rgb(255, 255, 255));&quot;&gt;zip&amp;nbsp;&lt;/span&gt;&lt;span style=&quot;background-color: transparent; color: light-dark(rgb(0, 0, 0), rgb(255, 255, 255));&quot;&gt;(VARCHAR)&lt;/span&gt;&lt;/div&gt;&lt;div&gt;phone&amp;nbsp;&lt;span style=&quot;background-color: transparent; color: light-dark(rgb(0, 0, 0), rgb(255, 255, 255));&quot;&gt;(VARCHAR)&lt;/span&gt;&lt;/div&gt;&lt;div&gt;email&amp;nbsp;&lt;span style=&quot;background-color: transparent; color: light-dark(rgb(0, 0, 0), rgb(255, 255, 255));&quot;&gt;(VARCHAR)&lt;/span&gt;&lt;/div&gt;&lt;div&gt;commission (NUM (5,2))&lt;/div&gt;&lt;div&gt;&lt;br&gt;&lt;/div&gt;" style="align=left;strokeColor=none;fillColor=none;spacingLeft=4;spacingRight=4;fontSize=12;verticalAlign=top;resizable=0;rotatable=0;part=1;html=1;whiteSpace=wrap;movable=0;deletable=0;editable=0;locked=1;connectable=0;" parent="aGkPaXwtZ-jop2L1aZOz-23" vertex="1">
          <mxGeometry y="50" width="160" height="160" as="geometry" />
        </mxCell>
        <mxCell id="aGkPaXwtZ-jop2L1aZOz-27" value="SALES" style="swimlane;childLayout=stackLayout;horizontal=1;startSize=50;horizontalStack=0;rounded=1;fontSize=14;fontStyle=0;strokeWidth=2;resizeParent=0;resizeLast=1;shadow=0;dashed=0;align=center;arcSize=4;whiteSpace=wrap;html=1;fillColor=#f0a30a;fontColor=#000000;strokeColor=#BD7000;movable=0;resizable=0;rotatable=0;deletable=0;editable=0;locked=1;connectable=0;" parent="1" vertex="1">
          <mxGeometry x="-380" y="490" width="180" height="160" as="geometry" />
        </mxCell>
        <mxCell id="aGkPaXwtZ-jop2L1aZOz-28" value="sale_ID (PK) (VARCHAR)&lt;div&gt;buyer_ID (FK)&amp;nbsp;&lt;span style=&quot;background-color: transparent; color: light-dark(rgb(0, 0, 0), rgb(255, 255, 255));&quot;&gt;(VARCHAR)&lt;/span&gt;&lt;/div&gt;&lt;div&gt;agent_ID (FK)&amp;nbsp;&lt;span style=&quot;background-color: transparent; color: light-dark(rgb(0, 0, 0), rgb(255, 255, 255));&quot;&gt;(VARCHAR)&lt;/span&gt;&lt;/div&gt;&lt;div&gt;parcel_# (FK)&amp;nbsp;&lt;span style=&quot;background-color: transparent; color: light-dark(rgb(0, 0, 0), rgb(255, 255, 255));&quot;&gt;(VARCHAR)&lt;/span&gt;&lt;span style=&quot;background-color: transparent; text-wrap-mode: nowrap; color: rgba(0, 0, 0, 0); font-family: monospace; font-size: 0px;&quot;&gt;%3CmxGraphModel%3E%3Croot%3E%3CmxCell%20id%3D%220%22%2F%3E%3CmxCell%20id%3D%221%22%20parent%3D%220%22%2F%3E%3CmxCell%20id%3D%222%22%20value%3D%22BUYERS%22%20style%3D%22swimlane%3BchildLayout%3DstackLayout%3Bhorizontal%3D1%3BstartSize%3D50%3BhorizontalStack%3D0%3Brounded%3D1%3BfontSize%3D14%3BfontStyle%3D0%3BstrokeWidth%3D2%3BresizeParent%3D0%3BresizeLast%3D1%3Bshadow%3D0%3Bdashed%3D0%3Balign%3Dcenter%3BarcSize%3D4%3BwhiteSpace%3Dwrap%3Bhtml%3D1%3BfillColor%3D%230050ef%3BfontColor%3D%23ffffff%3BstrokeColor%3D%23001DBC%3B%22%20vertex%3D%221%22%20parent%3D%221%22%3E%3CmxGeometry%20x%3D%22-390%22%20y%3D%22200%22%20width%3D%22160%22%20height%3D%22240%22%20as%3D%22geometry%22%2F%3E%3C%2FmxCell%3E%3CmxCell%20id%3D%223%22%20value%3D%22acct_ID%20(PK)%20(VARCHAR)%26lt%3Bdiv%26gt%3Bfirst_name%20(VARCHAR)%26lt%3B%2Fdiv%26gt%3B%26lt%3Bdiv%26gt%3Blast_name%26amp%3Bnbsp%3B%26lt%3Bspan%20style%3D%26quot%3Bbackground-color%3A%20transparent%3B%20color%3A%20light-dark(rgb(0%2C%200%2C%200)%2C%20rgb(255%2C%20255%2C%20255))%3B%26quot%3B%26gt%3B(VARCHAR)%26lt%3B%2Fspan%26gt%3B%26lt%3B%2Fdiv%26gt%3B%26lt%3Bdiv%26gt%3Baddress%26amp%3Bnbsp%3B%26lt%3Bspan%20style%3D%26quot%3Bbackground-color%3A%20transparent%3B%20color%3A%20light-dark(rgb(0%2C%200%2C%200)%2C%20rgb(255%2C%20255%2C%20255))%3B%26quot%3B%26gt%3B(VARCHAR)%26lt%3B%2Fspan%26gt%3B%26lt%3B%2Fdiv%26gt%3B%26lt%3Bdiv%26gt%3B%26lt%3Bspan%20style%3D%26quot%3Bbackground-color%3A%20transparent%3B%20color%3A%20light-dark(rgb(0%2C%200%2C%200)%2C%20rgb(255%2C%20255%2C%20255))%3B%26quot%3B%26gt%3Bcity%26amp%3Bnbsp%3B%26lt%3B%2Fspan%26gt%3B%26lt%3Bspan%20style%3D%26quot%3Bbackground-color%3A%20transparent%3B%20color%3A%20light-dark(rgb(0%2C%200%2C%200)%2C%20rgb(255%2C%20255%2C%20255))%3B%26quot%3B%26gt%3B(VARCHAR)%26lt%3B%2Fspan%26gt%3B%26lt%3B%2Fdiv%26gt%3B%26lt%3Bdiv%26gt%3B%26lt%3Bspan%20style%3D%26quot%3Bbackground-color%3A%20transparent%3B%20color%3A%20light-dark(rgb(0%2C%200%2C%200)%2C%20rgb(255%2C%20255%2C%20255))%3B%26quot%3B%26gt%3Bstate%26amp%3Bnbsp%3B%26lt%3B%2Fspan%26gt%3B%26lt%3Bspan%20style%3D%26quot%3Bbackground-color%3A%20transparent%3B%20color%3A%20light-dark(rgb(0%2C%200%2C%200)%2C%20rgb(255%2C%20255%2C%20255))%3B%26quot%3B%26gt%3B(VARCHAR)%26lt%3B%2Fspan%26gt%3B%26lt%3B%2Fdiv%26gt%3B%26lt%3Bdiv%26gt%3B%26lt%3Bspan%20style%3D%26quot%3Bbackground-color%3A%20transparent%3B%20color%3A%20light-dark(rgb(0%2C%200%2C%200)%2C%20rgb(255%2C%20255%2C%20255))%3B%26quot%3B%26gt%3Bzip%26amp%3Bnbsp%3B%26lt%3B%2Fspan%26gt%3B%26lt%3Bspan%20style%3D%26quot%3Bbackground-color%3A%20transparent%3B%20color%3A%20light-dark(rgb(0%2C%200%2C%200)%2C%20rgb(255%2C%20255%2C%20255))%3B%26quot%3B%26gt%3B(VARCHAR)%26lt%3B%2Fspan%26gt%3B%26lt%3B%2Fdiv%26gt%3B%26lt%3Bdiv%26gt%3Bphone%26amp%3Bnbsp%3B%26lt%3Bspan%20style%3D%26quot%3Bbackground-color%3A%20transparent%3B%20color%3A%20light-dark(rgb(0%2C%200%2C%200)%2C%20rgb(255%2C%20255%2C%20255))%3B%26quot%3B%26gt%3B(VARCHAR)%26lt%3B%2Fspan%26gt%3B%26lt%3B%2Fdiv%26gt%3B%26lt%3Bdiv%26gt%3Bemail%26amp%3Bnbsp%3B%26lt%3Bspan%20style%3D%26quot%3Bbackground-color%3A%20transparent%3B%20color%3A%20light-dark(rgb(0%2C%200%2C%200)%2C%20rgb(255%2C%20255%2C%20255))%3B%26quot%3B%26gt%3B(VARCHAR)%26lt%3B%2Fspan%26gt%3B%26lt%3B%2Fdiv%26gt%3B%26lt%3Bdiv%26gt%3Boccupation%26amp%3Bnbsp%3B%26lt%3Bspan%20style%3D%26quot%3Bbackground-color%3A%20transparent%3B%20color%3A%20light-dark(rgb(0%2C%200%2C%200)%2C%20rgb(255%2C%20255%2C%20255))%3B%26quot%3B%26gt%3B(VARCHAR)%26lt%3B%2Fspan%26gt%3B%26lt%3B%2Fdiv%26gt%3B%26lt%3Bdiv%26gt%3Bsalary%20(num%20in%20%24)%26lt%3B%2Fdiv%26gt%3B%26lt%3Bdiv%26gt%3Bcredit_score%20(num)%26lt%3B%2Fdiv%26gt%3B%22%20style%3D%22align%3Dleft%3BstrokeColor%3Dnone%3BfillColor%3Dnone%3BspacingLeft%3D4%3BspacingRight%3D4%3BfontSize%3D12%3BverticalAlign%3Dtop%3Bresizable%3D0%3Brotatable%3D0%3Bpart%3D1%3Bhtml%3D1%3BwhiteSpace%3Dwrap%3B%22%20vertex%3D%221%22%20parent%3D%222%22%3E%3CmxGeometry%20y%3D%2250%22%20width%3D%22160%22%20height%3D%22190%22%20as%3D%22geometry%22%2F%3E%3C%2FmxCell%3E%3C%2Froot%3E%3C%2FmxGraphModel%3E&lt;/span&gt;&lt;span style=&quot;background-color: transparent; text-wrap-mode: nowrap; color: rgba(0, 0, 0, 0); font-family: monospace; font-size: 0px;&quot;&gt;%3CmxGraphModel%3E%3Croot%3E%3CmxCell%20id%3D%220%22%2F%3E%3CmxCell%20id%3D%221%22%20parent%3D%220%22%2F%3E%3CmxCell%20id%3D%222%22%20value%3D%22BUYERS%22%20style%3D%22swimlane%3BchildLayout%3DstackLayout%3Bhorizontal%3D1%3BstartSize%3D50%3BhorizontalStack%3D0%3Brounded%3D1%3BfontSize%3D14%3BfontStyle%3D0%3BstrokeWidth%3D2%3BresizeParent%3D0%3BresizeLast%3D1%3Bshadow%3D0%3Bdashed%3D0%3Balign%3Dcenter%3BarcSize%3D4%3BwhiteSpace%3Dwrap%3Bhtml%3D1%3BfillColor%3D%230050ef%3BfontColor%3D%23ffffff%3BstrokeColor%3D%23001DBC%3B%22%20vertex%3D%221%22%20parent%3D%221%22%3E%3CmxGeometry%20x%3D%22-390%22%20y%3D%22200%22%20width%3D%22160%22%20height%3D%22240%22%20as%3D%22geometry%22%2F%3E%3C%2FmxCell%3E%3CmxCell%20id%3D%223%22%20value%3D%22acct_ID%20(PK)%20(VARCHAR)%26lt%3Bdiv%26gt%3Bfirst_name%20(VARCHAR)%26lt%3B%2Fdiv%26gt%3B%26lt%3Bdiv%26gt%3Blast_name%26amp%3Bnbsp%3B%26lt%3Bspan%20style%3D%26quot%3Bbackground-color%3A%20transparent%3B%20color%3A%20light-dark(rgb(0%2C%200%2C%200)%2C%20rgb(255%2C%20255%2C%20255))%3B%26quot%3B%26gt%3B(VARCHAR)%26lt%3B%2Fspan%26gt%3B%26lt%3B%2Fdiv%26gt%3B%26lt%3Bdiv%26gt%3Baddress%26amp%3Bnbsp%3B%26lt%3Bspan%20style%3D%26quot%3Bbackground-color%3A%20transparent%3B%20color%3A%20light-dark(rgb(0%2C%200%2C%200)%2C%20rgb(255%2C%20255%2C%20255))%3B%26quot%3B%26gt%3B(VARCHAR)%26lt%3B%2Fspan%26gt%3B%26lt%3B%2Fdiv%26gt%3B%26lt%3Bdiv%26gt%3B%26lt%3Bspan%20style%3D%26quot%3Bbackground-color%3A%20transparent%3B%20color%3A%20light-dark(rgb(0%2C%200%2C%200)%2C%20rgb(255%2C%20255%2C%20255))%3B%26quot%3B%26gt%3Bcity%26amp%3Bnbsp%3B%26lt%3B%2Fspan%26gt%3B%26lt%3Bspan%20style%3D%26quot%3Bbackground-color%3A%20transparent%3B%20color%3A%20light-dark(rgb(0%2C%200%2C%200)%2C%20rgb(255%2C%20255%2C%20255))%3B%26quot%3B%26gt%3B(VARCHAR)%26lt%3B%2Fspan%26gt%3B%26lt%3B%2Fdiv%26gt%3B%26lt%3Bdiv%26gt%3B%26lt%3Bspan%20style%3D%26quot%3Bbackground-color%3A%20transparent%3B%20color%3A%20light-dark(rgb(0%2C%200%2C%200)%2C%20rgb(255%2C%20255%2C%20255))%3B%26quot%3B%26gt%3Bstate%26amp%3Bnbsp%3B%26lt%3B%2Fspan%26gt%3B%26lt%3Bspan%20style%3D%26quot%3Bbackground-color%3A%20transparent%3B%20color%3A%20light-dark(rgb(0%2C%200%2C%200)%2C%20rgb(255%2C%20255%2C%20255))%3B%26quot%3B%26gt%3B(VARCHAR)%26lt%3B%2Fspan%26gt%3B%26lt%3B%2Fdiv%26gt%3B%26lt%3Bdiv%26gt%3B%26lt%3Bspan%20style%3D%26quot%3Bbackground-color%3A%20transparent%3B%20color%3A%20light-dark(rgb(0%2C%200%2C%200)%2C%20rgb(255%2C%20255%2C%20255))%3B%26quot%3B%26gt%3Bzip%26amp%3Bnbsp%3B%26lt%3B%2Fspan%26gt%3B%26lt%3Bspan%20style%3D%26quot%3Bbackground-color%3A%20transparent%3B%20color%3A%20light-dark(rgb(0%2C%200%2C%200)%2C%20rgb(255%2C%20255%2C%20255))%3B%26quot%3B%26gt%3B(VARCHAR)%26lt%3B%2Fspan%26gt%3B%26lt%3B%2Fdiv%26gt%3B%26lt%3Bdiv%26gt%3Bphone%26amp%3Bnbsp%3B%26lt%3Bspan%20style%3D%26quot%3Bbackground-color%3A%20transparent%3B%20color%3A%20light-dark(rgb(0%2C%200%2C%200)%2C%20rgb(255%2C%20255%2C%20255))%3B%26quot%3B%26gt%3B(VARCHAR)%26lt%3B%2Fspan%26gt%3B%26lt%3B%2Fdiv%26gt%3B%26lt%3Bdiv%26gt%3Bemail%26amp%3Bnbsp%3B%26lt%3Bspan%20style%3D%26quot%3Bbackground-color%3A%20transparent%3B%20color%3A%20light-dark(rgb(0%2C%200%2C%200)%2C%20rgb(255%2C%20255%2C%20255))%3B%26quot%3B%26gt%3B(VARCHAR)%26lt%3B%2Fspan%26gt%3B%26lt%3B%2Fdiv%26gt%3B%26lt%3Bdiv%26gt%3Boccupation%26amp%3Bnbsp%3B%26lt%3Bspan%20style%3D%26quot%3Bbackground-color%3A%20transparent%3B%20color%3A%20light-dark(rgb(0%2C%200%2C%200)%2C%20rgb(255%2C%20255%2C%20255))%3B%26quot%3B%26gt%3B(VARCHAR)%26lt%3B%2Fspan%26gt%3B%26lt%3B%2Fdiv%26gt%3B%26lt%3Bdiv%26gt%3Bsalary%20(num%20in%20%24)%26lt%3B%2Fdiv%26gt%3B%26lt%3Bdiv%26gt%3Bcredit_score%20(num)%26lt%3B%2Fdiv%26gt%3B%22%20style%3D%22align%3Dleft%3BstrokeColor%3Dnone%3BfillColor%3Dnone%3BspacingLeft%3D4%3BspacingRight%3D4%3BfontSize%3D12%3BverticalAlign%3Dtop%3Bresizable%3D0%3Brotatable%3D0%3Bpart%3D1%3Bhtml%3D1%3BwhiteSpace%3Dwrap%3B%22%20vertex%3D%221%22%20parent%3D%222%22%3E%3CmxGeometry%20y%3D%2250%22%20width%3D%22160%22%20height%3D%22190%22%20as%3D%22geometry%22%2F%3E%3C%2FmxCell%3E%3C%2Froot%3E%3C%2FmxGraphModel%3E&lt;/span&gt;&lt;/div&gt;&lt;div&gt;purch_date (DATE)&lt;/div&gt;&lt;div&gt;purch_amount (NUM (10,2))&lt;/div&gt;" style="align=left;strokeColor=none;fillColor=none;spacingLeft=4;spacingRight=4;fontSize=12;verticalAlign=top;resizable=0;rotatable=0;part=1;html=1;whiteSpace=wrap;movable=0;deletable=0;editable=0;locked=1;connectable=0;" parent="aGkPaXwtZ-jop2L1aZOz-27" vertex="1">
          <mxGeometry y="50" width="180" height="110" as="geometry" />
        </mxCell>
        <mxCell id="aGkPaXwtZ-jop2L1aZOz-35" value="" style="endArrow=classic;html=1;rounded=0;strokeColor=#000000;exitX=0.5;exitY=1;exitDx=0;exitDy=0;entryX=0.5;entryY=0;entryDx=0;entryDy=0;movable=0;resizable=0;rotatable=0;deletable=0;editable=0;locked=1;connectable=0;" parent="1" source="aGkPaXwtZ-jop2L1aZOz-14" target="aGkPaXwtZ-jop2L1aZOz-27" edge="1">
          <mxGeometry width="50" height="50" relative="1" as="geometry">
            <mxPoint x="-250" y="460" as="sourcePoint" />
            <mxPoint x="-200" y="410" as="targetPoint" />
          </mxGeometry>
        </mxCell>
        <mxCell id="aGkPaXwtZ-jop2L1aZOz-36" value="" style="endArrow=classic;html=1;rounded=0;strokeColor=#000000;exitX=0.5;exitY=0;exitDx=0;exitDy=0;entryX=0.5;entryY=1;entryDx=0;entryDy=0;movable=0;resizable=0;rotatable=0;deletable=0;editable=0;locked=1;connectable=0;" parent="1" source="aGkPaXwtZ-jop2L1aZOz-23" target="aGkPaXwtZ-jop2L1aZOz-28" edge="1">
          <mxGeometry width="50" height="50" relative="1" as="geometry">
            <mxPoint x="-120" y="720" as="sourcePoint" />
            <mxPoint x="-120" y="860" as="targetPoint" />
          </mxGeometry>
        </mxCell>
        <mxCell id="aGkPaXwtZ-jop2L1aZOz-37" value="" style="endArrow=classic;html=1;rounded=0;strokeColor=#000000;exitX=1;exitY=0.5;exitDx=0;exitDy=0;entryX=0.5;entryY=1;entryDx=0;entryDy=0;movable=0;resizable=0;rotatable=0;deletable=0;editable=0;locked=1;connectable=0;" parent="1" source="aGkPaXwtZ-jop2L1aZOz-24" target="aGkPaXwtZ-jop2L1aZOz-20" edge="1">
          <mxGeometry width="50" height="50" relative="1" as="geometry">
            <mxPoint x="-90" y="910" as="sourcePoint" />
            <mxPoint x="-90" y="1050" as="targetPoint" />
          </mxGeometry>
        </mxCell>
        <mxCell id="aGkPaXwtZ-jop2L1aZOz-38" value="" style="endArrow=classic;html=1;rounded=0;strokeColor=#000000;exitX=0;exitY=0.5;exitDx=0;exitDy=0;entryX=1;entryY=0.5;entryDx=0;entryDy=0;movable=0;resizable=0;rotatable=0;deletable=0;editable=0;locked=1;connectable=0;" parent="1" source="aGkPaXwtZ-jop2L1aZOz-20" target="aGkPaXwtZ-jop2L1aZOz-28" edge="1">
          <mxGeometry width="50" height="50" relative="1" as="geometry">
            <mxPoint x="-80" y="460" as="sourcePoint" />
            <mxPoint x="-190" y="595" as="targetPoint" />
          </mxGeometry>
        </mxCell>
        <mxCell id="aGkPaXwtZ-jop2L1aZOz-41" value="" style="endArrow=classic;html=1;rounded=0;strokeColor=#000000;exitX=0.5;exitY=1;exitDx=0;exitDy=0;entryX=0.5;entryY=0;entryDx=0;entryDy=0;movable=0;resizable=0;rotatable=0;deletable=0;editable=0;locked=1;connectable=0;" parent="1" source="aGkPaXwtZ-jop2L1aZOz-18" target="aGkPaXwtZ-jop2L1aZOz-21" edge="1">
          <mxGeometry width="50" height="50" relative="1" as="geometry">
            <mxPoint x="300" y="730" as="sourcePoint" />
            <mxPoint x="300" y="870" as="targetPoint" />
          </mxGeometry>
        </mxCell>
      </root>
    </mxGraphModel>
  </diagram>
</mxfile>
